name rise45.9887peak57.8056fall74.9286.mot
datacolumns 19
datarows 35
range 21.11659200000000 21.17325800000000
endheader
time	ground_force1_vx	ground_force1_vy	ground_force1_vz	ground_force1_px	ground_force1_py	ground_force1_pz	ground_force2_vx	ground_force2_vy	ground_force2_vz	ground_force2_px	ground_force2_py	ground_force2_pz	ground_torque1_x	ground_torque1_y	ground_torque1_z	ground_torque2_x	ground_torque2_y	ground_torque2_z	
21.11659200000000	-43.38725100000000	775.07093799999996	52.63396900000000	0.09886500000000	0.00000000000000	0.12564600000000	-6.11421400000000	33.04831600000000	8.34632400000000	0.28154800000000	0.00000000000000	-0.05196900000000	0.00000000000000	21.53963000000000	0.00000000000000	0.00000000000000	4.79809600000000	0.00000000000000	
21.11825700000000	-43.83331600000000	773.61986600000000	52.42061900000000	0.09816100000000	0.00000000000000	0.12555800000000	-6.89938200000000	39.38428600000000	9.61726600000000	0.29034700000000	0.00000000000000	-0.05240600000000	0.00000000000000	21.49955400000000	0.00000000000000	0.00000000000000	5.63803600000000	0.00000000000000	
21.11992100000000	-44.28308900000000	772.09746700000005	52.19127600000000	0.09747500000000	0.00000000000000	0.12546600000000	-7.58572200000000	45.82371600000000	10.81297700000000	0.29833000000000	0.00000000000000	-0.05281400000000	0.00000000000000	21.45890900000000	0.00000000000000	0.00000000000000	6.45453700000000	0.00000000000000	
21.12159100000000	-44.73697300000000	770.50125400000002	51.94578700000000	0.09680700000000	0.00000000000000	0.12537000000000	-8.14812500000000	52.25782000000000	11.90125400000000	0.30559100000000	0.00000000000000	-0.05319700000000	0.00000000000000	21.41779400000000	0.00000000000000	0.00000000000000	7.22502900000000	0.00000000000000	
21.12325600000000	-45.19536700000000	768.82870000000003	51.68401800000000	0.09615500000000	0.00000000000000	0.12527000000000	-8.56844900000000	58.59765300000000	12.85763800000000	0.31221000000000	0.00000000000000	-0.05356000000000	0.00000000000000	21.37630500000000	0.00000000000000	0.00000000000000	7.93108700000000	0.00000000000000	
21.12492700000000	-45.65866200000000	767.07723999999996	51.40585500000000	0.09551900000000	0.00000000000000	0.12516600000000	-8.83609800000000	64.77847300000001	13.66633300000000	0.31825500000000	0.00000000000000	-0.05390700000000	0.00000000000000	21.33453500000000	0.00000000000000	0.00000000000000	8.55932500000000	0.00000000000000	
21.12658700000000	-46.12723100000000	765.24427800000001	51.11120100000000	0.09489800000000	0.00000000000000	0.12505900000000	-8.94790700000000	70.76143000000000	14.32027800000000	0.32378200000000	0.00000000000000	-0.05424000000000	0.00000000000000	21.29257500000000	0.00000000000000	0.00000000000000	9.10173900000000	0.00000000000000	
21.12825200000000	-46.60143400000000	763.32718499999999	50.79998300000000	0.09429000000000	0.00000000000000	0.12494800000000	-8.90743300000000	76.53284600000001	14.82049400000000	0.32884100000000	0.00000000000000	-0.05456200000000	0.00000000000000	21.25051000000000	0.00000000000000	0.00000000000000	9.55554700000000	0.00000000000000	
21.12992000000000	-47.08160400000000	761.32330899999999	50.47214400000000	0.09369400000000	0.00000000000000	0.12483300000000	-8.72381400000000	82.10153500000000	15.17487400000000	0.33347400000000	0.00000000000000	-0.05487400000000	0.00000000000000	21.20842300000000	0.00000000000000	0.00000000000000	9.92262100000000	0.00000000000000	
21.13158500000000	-47.56804900000000	759.22997699999996	50.12765000000000	0.09310900000000	0.00000000000000	0.12471500000000	-8.41036700000000	87.49472600000000	15.39661000000000	0.33771800000000	0.00000000000000	-0.05517900000000	0.00000000000000	21.16639200000000	0.00000000000000	0.00000000000000	10.20862800000000	0.00000000000000	
21.13325100000000	-48.06104600000000	757.04449799999998	49.76648900000000	0.09253300000000	0.00000000000000	0.12459300000000	-7.98308600000000	92.75317500000000	15.50246600000000	0.34160700000000	0.00000000000000	-0.05547800000000	0.00000000000000	21.12448900000000	0.00000000000000	0.00000000000000	10.42199800000000	0.00000000000000	
21.13491700000000	-48.56083400000000	754.76416900000004	49.38866900000000	0.09196600000000	0.00000000000000	0.12446900000000	-7.45916900000000	97.92600500000000	15.51104300000000	0.34517000000000	0.00000000000000	-0.05577100000000	0.00000000000000	21.08278100000000	0.00000000000000	0.00000000000000	10.57284300000000	0.00000000000000	
21.13658500000000	-49.06761300000000	752.38628300000005	48.99422100000000	0.09140500000000	0.00000000000000	0.12434100000000	-6.85570700000000	103.06574400000000	15.44119900000000	0.34843100000000	0.00000000000000	-0.05606000000000	0.00000000000000	21.04132700000000	0.00000000000000	0.00000000000000	10.67193000000000	0.00000000000000	
21.13825700000000	-49.58153800000000	749.90812900000003	48.58319800000000	0.09085000000000	0.00000000000000	0.12421000000000	-6.18860100000000	108.22391600000000	15.31071100000000	0.35141600000000	0.00000000000000	-0.05634500000000	0.00000000000000	21.00018200000000	0.00000000000000	0.00000000000000	10.72976800000000	0.00000000000000	
21.13991900000000	-50.10271500000000	747.32700100000000	48.15567800000000	0.09029800000000	0.00000000000000	0.12407600000000	-5.47175000000000	113.44745399999999	15.13525000000000	0.35414300000000	0.00000000000000	-0.05662700000000	0.00000000000000	20.95939100000000	0.00000000000000	0.00000000000000	10.75588500000000	0.00000000000000	
21.14158600000000	-50.63119400000000	744.64020400000004	47.71175700000000	0.08974900000000	0.00000000000000	0.12394000000000	-4.71653100000000	118.77603900000000	14.92768400000000	0.35663300000000	0.00000000000000	-0.05690600000000	0.00000000000000	20.91899500000000	0.00000000000000	0.00000000000000	10.75830200000000	0.00000000000000	
21.14325700000000	-51.16696900000000	741.84505999999999	47.25156100000000	0.08920200000000	0.00000000000000	0.12380100000000	-3.93156300000000	124.24043800000000	14.69772200000000	0.35890200000000	0.00000000000000	-0.05718200000000	0.00000000000000	20.87902100000000	0.00000000000000	0.00000000000000	10.74322600000000	0.00000000000000	
21.14492300000000	-51.70997300000000	738.93891099999996	46.77523300000000	0.08865400000000	0.00000000000000	0.12365900000000	-3.12270800000000	129.86175499999999	14.45184100000000	0.36096600000000	0.00000000000000	-0.05745600000000	0.00000000000000	20.83949200000000	0.00000000000000	0.00000000000000	10.71493200000000	0.00000000000000	
21.14658800000000	-52.26007300000000	735.91913299999999	46.28294500000000	0.08810500000000	0.00000000000000	0.12351500000000	-2.29328300000000	135.65151700000001	14.19347400000000	0.36284000000000	0.00000000000000	-0.05772800000000	0.00000000000000	20.80041800000000	0.00000000000000	0.00000000000000	10.67582500000000	0.00000000000000	
21.14825600000000	-52.81706500000000	732.78313400000002	45.77488800000000	0.08755400000000	0.00000000000000	0.12336900000000	-1.44441400000000	141.61240799999999	13.92338200000000	0.36453600000000	0.00000000000000	-0.05799800000000	0.00000000000000	20.76180000000000	0.00000000000000	0.00000000000000	10.62662700000000	0.00000000000000	
21.14991700000000	-53.38067500000000	729.52836700000000	45.25128200000000	0.08699900000000	0.00000000000000	0.12322100000000	-0.57549400000000	147.73949900000000	13.64015500000000	0.36606700000000	0.00000000000000	-0.05826600000000	0.00000000000000	20.72362900000000	0.00000000000000	0.00000000000000	10.56666900000000	0.00000000000000	
21.15158400000000	-53.95055100000000	726.15233599999999	44.71236700000000	0.08643900000000	0.00000000000000	0.12307000000000	0.31532700000000	154.02177399999999	13.34078100000000	0.36744300000000	0.00000000000000	-0.05853300000000	0.00000000000000	20.68588400000000	0.00000000000000	0.00000000000000	10.49422800000000	0.00000000000000	
21.15325300000000	-54.52626600000000	722.65260100000000	44.15840900000000	0.08587300000000	0.00000000000000	0.12291800000000	1.23064000000000	160.44380200000001	13.02122300000000	0.36867600000000	0.00000000000000	-0.05879700000000	0.00000000000000	20.64853000000000	0.00000000000000	0.00000000000000	10.40689200000000	0.00000000000000	
21.15492200000000	-55.10731100000000	719.02678700000001	43.58969600000000	0.08530100000000	0.00000000000000	0.12276400000000	2.17332500000000	166.98738200000000	12.67697100000000	0.36977400000000	0.00000000000000	-0.05905900000000	0.00000000000000	20.61152400000000	0.00000000000000	0.00000000000000	10.30190500000000	0.00000000000000	
21.15658900000000	-55.69309400000000	715.27259000000004	43.00654100000000	0.08472000000000	0.00000000000000	0.12260800000000	3.14615400000000	173.63306800000001	12.30351500000000	0.37074700000000	0.00000000000000	-0.05931900000000	0.00000000000000	20.57480500000000	0.00000000000000	0.00000000000000	10.17647700000000	0.00000000000000	
21.15825400000000	-56.28293900000000	711.38778800000000	42.40928000000000	0.08413100000000	0.00000000000000	0.12245100000000	4.15148200000000	180.36146800000000	11.89674200000000	0.37160200000000	0.00000000000000	-0.05957700000000	0.00000000000000	20.53830300000000	0.00000000000000	0.00000000000000	10.02804400000000	0.00000000000000	
21.15991800000000	-56.87608600000000	707.37023999999997	41.79827400000000	0.08353200000000	0.00000000000000	0.12229200000000	5.19102100000000	187.15427600000001	11.45322000000000	0.37234900000000	0.00000000000000	-0.05983200000000	0.00000000000000	20.50193000000000	0.00000000000000	0.00000000000000	9.85446000000000	0.00000000000000	
21.16159100000000	-57.47168900000000	703.21790199999998	41.17390400000000	0.08292300000000	0.00000000000000	0.12213200000000	6.26571100000000	193.99501799999999	10.97039000000000	0.37299300000000	0.00000000000000	-0.06008500000000	0.00000000000000	20.46558900000000	0.00000000000000	0.00000000000000	9.65412500000000	0.00000000000000	
21.16325400000000	-58.06881500000000	698.92882999999995	40.53657600000000	0.08230300000000	0.00000000000000	0.12197100000000	7.37566100000000	200.86949300000001	10.44664900000000	0.37354100000000	0.00000000000000	-0.06033600000000	0.00000000000000	20.42916300000000	0.00000000000000	0.00000000000000	9.42605300000000	0.00000000000000	
21.16492100000000	-58.66644500000000	694.50118899999995	39.88671800000000	0.08167100000000	0.00000000000000	0.12180900000000	8.52016600000000	207.76597300000000	9.88136500000000	0.37400000000000	0.00000000000000	-0.06058400000000	0.00000000000000	20.39252500000000	0.00000000000000	0.00000000000000	9.16987900000000	0.00000000000000	
21.16659000000000	-59.26347700000000	689.93325900000002	39.22477700000000	0.08102800000000	0.00000000000000	0.12164600000000	9.69778300000000	214.67515900000001	9.27480500000000	0.37437600000000	0.00000000000000	-0.06082900000000	0.00000000000000	20.35553000000000	0.00000000000000	0.00000000000000	8.88582800000000	0.00000000000000	
21.16825600000000	-59.85872200000000	685.22344499999997	38.55122600000000	0.08037200000000	0.00000000000000	0.12148200000000	10.90643300000000	221.58997900000000	8.62803000000000	0.37467300000000	0.00000000000000	-0.06107100000000	0.00000000000000	20.31801900000000	0.00000000000000	0.00000000000000	8.57464100000000	0.00000000000000	
21.16992300000000	-60.45091100000000	680.37028299999997	37.86655500000000	0.07970300000000	0.00000000000000	0.12131800000000	12.14353900000000	228.50525099999999	7.94275100000000	0.37489800000000	0.00000000000000	-0.06131000000000	0.00000000000000	20.27982000000000	0.00000000000000	0.00000000000000	8.23749000000000	0.00000000000000	
21.17158700000000	-61.03869500000000	675.37245099999996	37.17127600000000	0.07902200000000	0.00000000000000	0.12115200000000	13.40616900000000	235.41728599999999	7.22116200000000	0.37505400000000	0.00000000000000	-0.06154600000000	0.00000000000000	20.24074300000000	0.00000000000000	0.00000000000000	7.87587300000000	0.00000000000000	
21.17325800000000	-61.62064400000000	670.22877700000004	36.46591900000000	0.07832700000000	0.00000000000000	0.12098700000000	14.69116800000000	242.32346100000001	6.46579200000000	0.37514600000000	0.00000000000000	-0.06177800000000	0.00000000000000	20.20058500000000	0.00000000000000	0.00000000000000	7.49150700000000	0.00000000000000	
